<?xml version="1.0" standalone="no"?>
<!DOCTYPE svg PUBLIC "-//W3C//DTD SVG 20010904//EN"
 "http://www.w3.org/TR/2001/REC-SVG-20010904/DTD/svg10.dtd">
<svg version="1.0" xmlns="http://www.w3.org/2000/svg"
 width="705.000000pt" height="705.000000pt" viewBox="0 0 705.000000 705.000000"
 preserveAspectRatio="xMidYMid meet">
<metadata>
Created by potrace 1.14, written by Peter Selinger 2001-2017
</metadata>
<g transform="translate(0.000000,705.000000) scale(0.100000,-0.100000)"
fill="#000000" stroke="none">
<path d="M2415 6996 c-186 -67 -188 -68 -215 -85 -13 -9 -26 -14 -27 -13 -7 7
-277 -131 -391 -200 -136 -83 -300 -195 -352 -241 -17 -15 -114 -94 -144 -117
-36 -28 -331 -326 -365 -369 -19 -24 -40 -49 -46 -55 -6 -6 -27 -34 -48 -63
-21 -28 -41 -53 -45 -55 -13 -6 -127 -176 -207 -308 -46 -78 -228 -432 -230
-450 -2 -11 -19 -58 -35 -95 -18 -40 -33 -80 -30 -80 1 0 -8 -25 -20 -55 -12
-30 -24 -65 -26 -77 -2 -12 -9 -35 -15 -50 -11 -28 -55 -194 -65 -243 -3 -14
-7 -33 -10 -42 -13 -45 -52 -298 -65 -428 -19 -191 -16 -625 6 -800 2 -19 6
-56 9 -82 3 -26 8 -58 10 -70 3 -13 8 -40 11 -61 9 -64 35 -186 67 -307 34
-132 33 -130 41 -150 3 -8 13 -40 23 -70 9 -30 35 -102 58 -160 22 -58 40
-108 41 -111 0 -6 32 -74 46 -99 5 -8 14 -26 20 -40 24 -57 95 -196 106 -208
7 -7 16 -24 19 -38 3 -13 9 -24 13 -24 3 0 15 -17 26 -37 19 -36 67 -113 100
-160 9 -13 15 -26 14 -29 0 -4 3 -10 9 -13 5 -3 35 -42 67 -86 64 -87 65 -88
98 -126 84 -99 127 -149 165 -188 23 -24 42 -46 42 -48 0 -3 52 -53 160 -152
280 -258 665 -501 1025 -648 256 -105 583 -193 810 -218 33 -4 62 -9 65 -10
16 -10 251 -20 430 -19 504 2 965 108 1426 329 276 132 476 260 733 470 134
110 337 316 463 469 399 489 657 1057 763 1680 14 81 25 185 25 230 0 80 -1
82 -25 84 -14 1 -36 3 -50 4 -14 1 -25 6 -25 10 0 4 -9 8 -19 8 -23 0 -139 48
-162 67 -8 7 -21 13 -27 13 -7 0 -12 4 -12 8 0 5 -12 15 -27 23 -15 8 -52 39
-82 70 -51 51 -67 70 -90 107 -9 15 -51 25 -51 11 0 -5 -6 -9 -13 -9 -19 0
-67 -24 -67 -33 0 -5 -4 -6 -8 -3 -7 4 -60 -10 -87 -24 -5 -3 -29 -5 -52 -5
-24 0 -43 -2 -43 -5 0 -6 -129 -3 -175 4 -48 7 -83 16 -110 26 -14 5 -25 8
-25 5 0 -4 -57 22 -137 63 -17 9 -30 19 -28 22 2 3 40 5 84 5 l81 -1 -3 26
c-4 24 -7 25 -65 25 l-61 0 0 210 1 210 -33 -1 c-19 0 -57 -7 -84 -15 -38 -11
-50 -19 -50 -34 0 -17 7 -19 53 -18 l52 2 0 -178 0 -178 -27 1 c-28 1 -113 74
-113 96 0 5 -7 10 -15 10 -8 0 -14 3 -13 8 2 10 -35 72 -44 72 -5 0 -8 9 -8
20 0 11 -5 20 -12 20 -6 0 -8 3 -5 7 4 3 0 15 -10 25 -9 10 -13 18 -9 18 3 0
0 13 -8 29 -8 15 -17 40 -20 55 -3 14 -7 34 -11 44 -6 20 -16 112 -18 174 -2
27 -10 45 -29 63 -15 14 -30 25 -34 25 -14 0 -131 126 -161 175 -82 130 -113
234 -117 393 -3 96 -15 124 -43 100 -7 -6 -13 -7 -13 -2 0 8 -22 13 -77 17
-13 0 -23 4 -23 8 0 4 -16 10 -36 14 -21 3 -47 13 -59 21 -12 8 -25 11 -28 7
-4 -3 -7 -1 -7 5 0 7 -4 11 -8 10 -12 -4 -140 81 -151 100 -6 9 -11 13 -11 8
0 -18 -115 118 -142 168 l-16 31 -129 1 c-70 0 -149 4 -174 8 -44 8 -47 9 -45
39 l1 32 -60 0 -60 0 -2 165 c0 91 -2 188 -2 216 l-1 52 -32 -8 c-133 -33
-138 -35 -138 -52 0 -19 9 -21 73 -20 l37 1 0 -164 c0 -91 -2 -165 -5 -165
-29 0 -164 118 -216 190 -27 36 -101 186 -115 230 -32 102 -35 175 -13 287 7
34 7 59 1 70 -11 19 0 51 34 98 45 62 61 170 42 275 -19 104 -76 160 -163 160
-106 0 -164 -78 -174 -238 -1 -10 -4 -10 -15 0 -8 7 -12 15 -10 17 2 2 -8 18
-21 36 -14 17 -25 37 -25 43 0 7 -4 12 -8 12 -4 0 -13 14 -19 31 -9 22 -17 30
-28 26 -8 -4 -15 -3 -15 1 0 4 -19 8 -43 8 -23 1 -55 5 -72 9 -16 4 -38 8 -47
9 -10 0 -18 4 -18 8 0 4 -9 8 -19 8 -11 0 -23 5 -26 10 -4 6 -11 8 -16 5 -5
-4 -9 -1 -9 4 0 6 -3 11 -7 10 -16 -2 -53 14 -53 23 0 5 -4 6 -10 3 -5 -3 -10
-1 -10 6 0 7 -3 10 -6 6 -6 -5 -16 2 -79 55 -18 15 -35 25 -39 21 -3 -3 -6 -2
-6 4 0 9 -75 94 -82 92 -2 0 -57 -20 -123 -43z m1042 -238 c34 -38 43 -63 49
-140 5 -54 2 -89 -9 -129 -17 -56 -56 -106 -64 -81 -3 6 -9 10 -14 6 -5 -3 -9
0 -9 7 0 7 -3 10 -6 6 -3 -3 -15 3 -27 14 -11 10 -27 19 -34 19 -7 0 -13 6
-13 14 0 8 -9 17 -20 21 -32 10 -38 103 -14 208 16 68 117 102 161 55z"/>
<path d="M3362 6628 c-20 -20 -14 -66 9 -79 34 -18 69 3 69 40 0 43 -50 67
-78 39z"/>
<path d="M4705 6825 c-84 -22 -125 -92 -130 -223 -6 -164 58 -264 170 -264
111 0 169 86 169 253 0 175 -81 266 -209 234z m129 -105 c24 -41 31 -171 13
-238 -33 -123 -159 -127 -202 -6 -18 52 -13 199 8 240 44 86 132 88 181 4z"/>
<path d="M4712 6628 c-20 -20 -14 -66 9 -79 33 -17 69 3 69 39 0 33 -16 52
-45 52 -12 0 -26 -5 -33 -12z"/>
<path d="M5123 6815 c-65 -28 -105 -133 -98 -258 9 -143 69 -221 172 -219 112
3 173 97 168 264 -3 108 -37 183 -97 214 -34 18 -103 17 -145 -1z m141 -65
c35 -42 49 -101 44 -185 -8 -116 -47 -178 -113 -178 -68 0 -106 60 -111 178
-6 141 34 215 116 215 30 0 43 -6 64 -30z"/>
<path d="M5162 6628 c-20 -20 -14 -66 9 -79 33 -17 69 3 69 39 0 33 -16 52
-45 52 -12 0 -26 -5 -33 -12z"/>
<path d="M5560 6808 c-59 -40 -84 -109 -83 -228 0 -86 8 -123 38 -170 31 -48
73 -72 131 -72 62 0 104 28 138 91 24 46 28 64 29 139 1 107 -7 147 -38 193
-45 68 -150 91 -215 47z m147 -50 c36 -40 46 -70 49 -157 5 -138 -36 -216
-112 -213 -76 3 -108 61 -109 192 0 146 30 198 116 199 25 1 42 -6 56 -21z"/>
<path d="M5618 6629 c-26 -15 -23 -65 3 -80 33 -17 69 3 69 39 0 46 -32 65
-72 41z"/>
<path d="M6463 6809 c-44 -28 -69 -73 -83 -146 -17 -100 5 -225 49 -277 59
-68 187 -62 239 11 62 89 63 287 2 373 -43 60 -144 79 -207 39z m136 -45 c42
-30 60 -87 57 -188 -3 -100 -19 -144 -62 -172 -57 -38 -121 -8 -147 70 -17 49
-19 161 -5 213 22 79 100 117 157 77z"/>
<path d="M6512 6628 c-20 -20 -14 -66 9 -79 33 -17 69 3 69 39 0 33 -16 52
-45 52 -12 0 -26 -5 -33 -12z"/>
<path d="M3785 6802 c-40 -12 -61 -23 -63 -35 -3 -14 4 -17 35 -18 21 -1 46
-1 56 0 16 2 17 -12 17 -177 l0 -178 -67 0 c-63 1 -68 -1 -71 -21 -2 -13 0
-24 5 -24 4 -1 77 -2 161 -3 140 -1 153 0 158 17 8 26 -1 32 -57 33 -27 1 -53
2 -59 3 -5 1 -9 78 -9 194 0 105 0 200 0 210 -1 21 -26 21 -106 -1z"/>
<path d="M4227 6802 c-48 -14 -57 -20 -55 -37 3 -18 9 -20 56 -17 l52 2 0
-178 0 -178 -69 1 c-66 1 -68 0 -69 -25 l-1 -25 157 1 c86 1 161 2 165 3 5 0
7 11 5 23 -3 21 -8 23 -63 23 l-60 0 -1 210 -1 210 -29 1 c-16 1 -55 -5 -87
-14z"/>
<path d="M6027 6802 c-48 -14 -57 -20 -55 -37 3 -17 10 -19 56 -18 l52 3 0
-178 0 -178 -60 1 c-68 1 -83 -5 -78 -31 3 -18 15 -19 163 -19 l160 0 0 25 c0
24 -2 25 -61 24 l-61 -1 0 211 0 211 -29 1 c-16 1 -55 -5 -87 -14z"/>
<path d="M5594 5924 c-47 -16 -87 -60 -104 -117 -29 -95 -14 -245 31 -308 58
-81 190 -81 248 0 52 72 62 246 21 334 -38 80 -119 117 -196 91z m113 -66 c37
-41 46 -71 49 -156 3 -127 -29 -199 -96 -215 -36 -9 -88 25 -107 71 -20 45
-26 172 -11 230 21 82 117 123 165 70z"/>
<path d="M5608 5715 c-16 -35 3 -75 35 -75 30 0 47 18 47 50 0 52 -61 71 -82
25z"/>
<path d="M6044 5924 c-75 -25 -116 -105 -119 -229 -2 -72 14 -150 39 -187 59
-90 202 -92 260 -3 39 59 54 200 30 290 -10 40 -49 102 -73 114 -41 22 -98 29
-137 15z m115 -68 c36 -38 50 -93 47 -181 -4 -121 -43 -187 -111 -187 -69 0
-107 62 -111 182 -4 139 33 210 111 210 31 0 47 -6 64 -24z"/>
<path d="M6061 5726 c-17 -20 -10 -67 11 -79 27 -18 68 7 68 41 0 15 -5 33
-12 40 -16 16 -53 15 -67 -2z"/>
<path d="M4730 5913 c-67 -18 -82 -21 -97 -22 -6 -1 -11 -10 -10 -21 1 -20 7
-22 80 -22 l27 -1 0 -177 0 -177 -67 1 c-66 1 -68 0 -68 -24 l0 -25 163 0 162
0 -3 25 c-3 23 -7 25 -63 25 l-59 0 -2 213 c-1 118 -3 215 -5 217 -1 1 -28 -4
-58 -12z"/>
<path d="M5180 5913 c-30 -8 -63 -16 -73 -18 -26 -6 -37 -15 -37 -31 0 -14 8
-16 73 -16 l37 0 -2 -176 -3 -177 -65 0 c-63 0 -65 -1 -65 -25 l0 -25 160 0
c158 0 160 0 163 23 2 13 -2 23 -10 23 -7 1 -29 3 -48 4 -19 1 -42 3 -51 4
-14 1 -16 26 -16 211 0 116 -2 212 -4 214 -2 2 -29 -3 -59 -11z"/>
<path d="M6510 5908 c-36 -11 -71 -21 -77 -23 -7 -3 -13 -11 -13 -20 0 -15 12
-18 78 -17 l32 0 0 -177 0 -177 -67 0 c-63 1 -68 -1 -71 -21 -2 -13 0 -24 5
-24 4 -1 79 -2 166 -3 l157 -1 -3 25 c-3 23 -8 25 -55 26 -29 1 -56 2 -61 3
-5 0 -9 90 -9 207 0 113 -3 209 -8 214 -5 4 -38 -1 -74 -12z"/>
<path d="M4228 5902 c-43 -12 -58 -21 -58 -34 0 -19 8 -21 73 -20 l37 1 0
-177 0 -178 -70 1 c-69 1 -70 1 -67 -25 l4 -25 159 0 159 0 3 25 c3 25 1 25
-60 25 l-63 0 0 213 0 212 -30 -1 c-16 -1 -56 -9 -87 -17z"/>
<path d="M6514 5030 c-49 -11 -90 -45 -114 -97 -44 -92 -28 -282 29 -347 60
-69 187 -62 240 13 45 62 60 207 32 309 -22 81 -110 138 -187 122z m85 -66
c42 -30 60 -88 57 -188 -3 -130 -40 -191 -113 -188 -72 3 -110 70 -111 198 0
85 13 131 48 166 33 33 82 37 119 12z"/>
<path d="M6512 4828 c-7 -7 -12 -25 -12 -40 0 -34 41 -59 68 -41 21 12 28 59
11 79 -14 17 -51 18 -67 2z"/>
<path d="M5125 5016 c-65 -29 -106 -130 -100 -246 4 -68 6 -79 19 -120 31 -94
137 -141 222 -97 133 69 134 394 2 463 -34 17 -103 17 -143 0z m123 -52 c40
-28 56 -73 58 -167 3 -136 -35 -209 -111 -209 -71 0 -107 59 -111 182 -3 94
10 147 47 186 27 28 83 32 117 8z"/>
<path d="M5162 4828 c-20 -20 -14 -66 9 -79 33 -17 69 3 69 39 0 33 -16 52
-45 52 -12 0 -26 -5 -33 -12z"/>
<path d="M6013 5009 c-63 -40 -93 -125 -88 -243 8 -150 65 -228 170 -228 103
0 162 79 170 227 4 73 -13 157 -39 197 -44 67 -147 89 -213 47z m146 -53 c36
-38 50 -93 47 -181 -5 -126 -43 -190 -112 -188 -78 2 -118 84 -110 228 5 110
44 165 116 165 26 0 43 -7 59 -24z"/>
<path d="M6060 4821 c-26 -50 8 -94 56 -72 27 12 33 58 12 79 -18 18 -56 14
-68 -7z"/>
<path d="M5582 5001 c-52 -13 -62 -19 -60 -35 3 -16 12 -20 53 -20 l50 -1 3
-176 2 -175 -67 0 c-59 1 -68 -2 -71 -18 -2 -10 1 -21 6 -25 6 -3 80 -6 164
-6 151 0 153 0 156 23 2 12 0 22 -5 23 -4 1 -30 2 -58 4 -27 1 -53 3 -57 4 -3
0 -7 85 -7 189 0 103 0 197 -1 210 0 26 -17 27 -108 3z"/>
<path d="M6046 4125 c-49 -17 -70 -37 -97 -93 -15 -33 -22 -69 -24 -122 -5
-174 54 -269 168 -272 52 -1 98 21 126 61 52 73 62 230 21 335 -11 29 -62 86
-77 86 -5 0 -24 4 -44 9 -24 5 -49 4 -73 -4z m113 -69 c13 -13 29 -41 36 -63
16 -46 17 -156 2 -212 -30 -112 -150 -125 -195 -23 -21 49 -25 185 -7 237 29
82 115 114 164 61z"/>
<path d="M6062 3928 c-20 -20 -14 -66 9 -79 33 -17 69 3 69 39 0 33 -16 52
-45 52 -12 0 -26 -5 -33 -12z"/>
<path d="M6500 4106 c-39 -15 -44 -16 -63 -16 -7 0 -13 -9 -14 -20 -2 -20 3
-22 80 -22 l27 -1 0 -176 0 -177 -57 1 c-71 2 -83 -2 -83 -26 0 -23 -16 -21
172 -23 l156 -1 -1 25 c-2 23 -6 25 -55 26 -28 1 -56 2 -61 3 -6 0 -9 87 -8
211 l2 210 -30 -1 c-16 0 -46 -6 -65 -13z"/>
</g>
</svg>
